<?xml version="1.0" encoding="UTF-8"?>
<svg width="151px" height="93px" viewBox="0 0 151 93" version="1.1" xmlns="http://www.w3.org/2000/svg" xmlns:xlink="http://www.w3.org/1999/xlink">
    <title>Logo_REDcert_EU</title>
    <defs>
        <path d="M1.268,27.591 C-2.972,-1.263 31.921,-0.777 39.501,1.427 C39.677,9.318 31.158,43.158 4.371,31.629 C3.799,29.976 7.057,26.34 11.44,22.427 C13.843,23.519 20.35,24.853 23.82,24.379 C19.886,23.64 16.538,22.64 13.431,20.692 C18.807,16.12 25.155,11.511 28.305,9.493 C25.439,10.577 22.397,12.049 19.339,13.795 C18.498,11.021 18.412,8.253 18.648,5.092 C17.605,7.583 17.278,12.611 17.569,14.837 C11.705,18.385 5.897,22.88 1.268,27.591 Z" id="path-1"></path>
        <linearGradient x1="31.8454268%" y1="81.8515186%" x2="57.4952311%" y2="81.8515186%" id="linearGradient-3">
            <stop stop-color="#9EC73D" offset="0%"></stop>
            <stop stop-color="#3AAB47" offset="100%"></stop>
        </linearGradient>
        <path d="M14.343,12.975 C32.608,-4.123 61.276,-3.176 78.373,15.089 L78.365,15.081 L77.89,14.596 C64.26562,1.22506 41.5135687,0.4052806 26.7945542,12.6567421 L26.351,13.032 C11.649,25.674 10.887,46.871 24.649,60.376 C30.066,65.692 36.926,69.024 44.15,70.34 L44.15,70.34 L44.147,70.356 C43.12,72.946 42.425,76.547 42.304,80.543 C42.175,84.8 42.724,88.648 43.702,91.328 L43.699,91.319 L43.1255401,91.2949879 C31.9642679,90.7599626 20.988374,86.1194868 12.6575341,77.4566637 L12.229,77.005 C-4.869,58.74 -3.922,30.073 14.343,12.975 Z" id="path-4"></path>
        <linearGradient x1="21.0641862%" y1="44.1168175%" x2="32.8910025%" y2="51.3687241%" id="linearGradient-6">
            <stop stop-color="#0067A5" offset="0%"></stop>
            <stop stop-color="#00A3DA" offset="100%"></stop>
        </linearGradient>
    </defs>
    <g id="Page-1" stroke="none" stroke-width="1" fill="none" fill-rule="evenodd">
        <g id="Logo_REDcert_EU">
            <path d="M90.539,46.053 C88.049,46.053 86.805,44.717 86.805,42.046 L86.805,39.127 C86.805,36.374 88.049,34.997 90.539,34.997 L95.445,34.997 L95.445,36.937 L90.589,36.937 C89.31,36.937 88.673,37.693 88.673,39.202 L88.673,41.996 C88.673,43.423 89.31,44.136 90.589,44.136 L95.495,44.136 L95.495,46.053 L90.539,46.053" id="Fill-1" fill="#636463"></path>
            <path d="M106.831,38.953 C106.831,37.526 106.184,36.814 104.89,36.814 L102.174,36.814 C100.895,36.814 100.258,37.526 100.258,38.953 L100.258,39.666 L106.831,39.666 L106.831,38.953 Z M102.174,46.053 C99.685,46.053 98.44,44.717 98.44,42.046 L98.44,39.003 C98.44,36.332 99.685,34.997 102.174,34.997 L104.865,34.997 C107.37,34.997 108.624,36.332 108.624,39.003 L108.624,41.308 L100.258,41.308 L100.258,41.996 C100.258,43.423 100.895,44.136 102.174,44.136 L108.274,44.136 L108.274,46.053 L102.174,46.053 L102.174,46.053 Z" id="Fill-2" fill="#636463"></path>
            <path d="M111.506,46.053 L111.506,34.997 L113.297,34.997 L113.297,36.565 C113.529,35.984 113.848,35.578 114.256,35.345 C114.662,35.113 115.435,34.997 116.148,34.997 L118.76,34.997 L118.76,36.937 L115.114,36.937 C114.468,36.937 114.013,37.108 113.758,37.448 C113.5,37.788 113.372,38.323 113.372,39.053 L113.372,46.053 L111.506,46.053" id="Fill-3" fill="#636463"></path>
            <path d="M124.658,46.053 C122.285,46.053 121.099,44.692 121.099,41.971 L121.099,31.867 L122.991,31.867 L122.991,34.997 L126.629,34.997 L126.629,36.639 L122.991,36.639 L122.991,42.046 C122.991,43.539 123.604,44.286 124.833,44.286 L126.579,44.286 L126.579,46.053 L124.658,46.053" id="Fill-4" fill="#636463"></path>
            <path d="M40.035,32.685 C40.035,31.381 39.403,30.729 38.143,30.729 L31.721,30.729 L31.721,36.325 L38.21,36.325 C38.851,36.325 39.315,36.175 39.604,35.876 C39.89,35.578 40.035,35.141 40.035,34.566 L40.035,32.685 Z M40.067,47.46 L40.067,42.362 C40.067,41.654 39.884,41.101 39.52,40.703 C39.155,40.305 38.586,40.106 37.811,40.106 L31.721,40.106 L31.721,47.46 L27.608,47.46 L27.608,26.549 L38.143,26.549 C40.067,26.549 41.499,26.963 42.44,27.793 C43.379,28.622 43.849,29.966 43.849,31.823 L43.849,33.969 C43.849,35.23 43.661,36.164 43.285,36.772 C42.908,37.381 42.356,37.806 41.627,38.049 C42.356,38.161 42.965,38.575 43.45,39.294 C43.938,40.012 44.181,40.969 44.181,42.163 L44.181,47.46 L40.067,47.46 L40.067,47.46 Z" id="Fill-5" fill="#1A1919"></path>
            <path d="M40.035,32.685 C40.035,31.381 39.403,30.729 38.143,30.729 L31.721,30.729 L31.721,36.325 L38.21,36.325 C38.851,36.325 39.315,36.175 39.604,35.876 C39.89,35.578 40.035,35.141 40.035,34.566 L40.035,32.685 Z M40.067,47.46 L40.067,42.362 C40.067,41.654 39.884,41.101 39.52,40.703 C39.155,40.305 38.586,40.106 37.811,40.106 L31.721,40.106 L31.721,47.46 L27.608,47.46 L27.608,26.549 L38.143,26.549 C40.067,26.549 41.499,26.963 42.44,27.793 C43.379,28.622 43.849,29.966 43.849,31.823 L43.849,33.969 C43.849,35.23 43.661,36.164 43.285,36.772 C42.908,37.381 42.356,37.806 41.627,38.049 C42.356,38.161 42.965,38.575 43.45,39.294 C43.938,40.012 44.181,40.969 44.181,42.163 L44.181,47.46 L40.067,47.46 Z" id="Stroke-6" stroke="#1A1919" stroke-width="0.482"></path>
            <polyline id="Fill-7" fill="#1A1919" points="48.068 47.46 48.068 26.549 62.64 26.549 62.64 30.729 52.181 30.729 52.181 35.064 58.328 35.064 58.328 38.613 52.181 38.613 52.181 43.28 62.64 43.28 62.64 47.46 48.068 47.46"></polyline>
            <polygon id="Stroke-8" stroke="#1A1919" stroke-width="0.482" points="48.068 47.46 48.068 26.549 62.64 26.549 62.64 30.729 52.181 30.729 52.181 35.064 58.328 35.064 58.328 38.613 52.181 38.613 52.181 43.28 62.64 43.28 62.64 47.46"></polygon>
            <path d="M78.81,32.885 C78.81,31.448 78.082,30.729 76.621,30.729 L70.232,30.729 L70.232,43.28 L76.589,43.28 C78.07,43.28 78.81,42.551 78.81,41.091 L78.81,32.885 Z M66.152,47.46 L66.152,26.549 L76.621,26.549 C80.823,26.549 82.924,28.661 82.924,32.885 L82.924,41.124 C82.924,45.348 80.768,47.46 76.455,47.46 L66.152,47.46 L66.152,47.46 Z" id="Fill-9" fill="#1A1919"></path>
            <path d="M78.81,32.885 C78.81,31.448 78.082,30.729 76.621,30.729 L70.232,30.729 L70.232,43.28 L76.589,43.28 C78.07,43.28 78.81,42.551 78.81,41.091 L78.81,32.885 Z M66.152,47.46 L66.152,26.549 L76.621,26.549 C80.823,26.549 82.924,28.661 82.924,32.885 L82.924,41.124 C82.924,45.348 80.768,47.46 76.455,47.46 L66.152,47.46 Z" id="Stroke-10" stroke="#1A1919" stroke-width="0.482"></path>
            <g id="Group-13" transform="translate(47.000000, 59.000000)">
                <mask id="mask-2" fill="white">
                    <use xlink:href="#path-1"></use>
                </mask>
                <g id="Clip-12"></g>
                <polygon id="Fill-11" fill="url(#linearGradient-3)" mask="url(#mask-2)" points="-47 34 103.453 34 103.453 -58.254 -47 -58.254"></polygon>
            </g>
            <g id="Group-16">
                <mask id="mask-5" fill="white">
                    <use xlink:href="#path-4"></use>
                </mask>
                <g id="Clip-15"></g>
                <polygon id="Fill-14" fill="url(#linearGradient-6)" mask="url(#mask-5)" points="0 93 150.453 93 150.453 0.746 0 0.746"></polygon>
            </g>
            <polyline id="Fill-17" fill="#0067A5" points="130.151 35.021 130.151 23.984 139.048 23.984 139.048 25.968 132.882 25.968 132.882 28.581 136.184 28.581 136.184 30.266 132.882 30.266 132.882 33.037 139.048 33.037 139.048 35.021 130.151 35.021"></polyline>
            <path d="M144.772,35.021 C142.011,35.021 140.632,34.056 140.632,32.124 L140.632,23.984 L143.362,23.984 L143.362,32.109 C143.362,32.728 143.802,33.037 144.683,33.037 L146.401,33.037 C147.282,33.037 147.722,32.728 147.722,32.109 L147.722,23.984 L150.453,23.984 L150.453,32.124 C150.453,34.056 149.073,35.021 146.313,35.021 L144.772,35.021" id="Fill-18" fill="#0067A5"></path>
        </g>
    </g>
</svg>