<?xml version="1.0" encoding="UTF-8"?>
<svg fill="#EE0405" width="100pt" height="100pt" version="1.1" viewBox="0 0 100 100" xmlns="http://www.w3.org/2000/svg">
 <g>
  <path d="m16.246 97.137l-1.3555-13.664c0-1.2578 1.6016-0.14453 3.6211-0.14453 2.0039 0 3.625-1.1133 3.625 0.14453l-1.1367 13.324c0 2.9141-4.7539 1.7266-4.7539 0.33984z"/>
  <path d="m10.43 52.652c-9.9531-4.5-9.1445-11.582-9.1445-11.582-1.2578 2.5 1.4141 24.309 11.789 24.309 4.6406 0.003906 8.543-7.6992-2.6445-12.727z"/>
  <path d="m10.43 37.242c-9.9531-4.4844-9.1445-11.566-9.1445-11.566-1.2578 2.4922 1.4141 24.309 11.789 24.309 4.6406 0 8.543-7.7031-2.6445-12.742z"/>
  <path d="m10.43 22.297c-9.9531-4.4648-9.1445-11.562-9.1445-11.562-1.2578 2.5 1.4141 24.297 11.789 24.297 4.6406 0 8.543-7.6836-2.6445-12.734z"/>
  <path d="m24.23 65.383c10.375 0 13.031-21.809 11.789-24.309 0 0 0.80469 7.082-9.1562 11.582-11.176 5.0234-7.2891 12.727-2.6328 12.727z"/>
  <path d="m10.43 68.434c-9.9531-4.4961-9.1445-11.582-9.1445-11.582-1.2578 2.5 1.4141 24.309 11.789 24.309 4.6406 0 8.543-7.6992-2.6445-12.727z"/>
  <path d="m24.23 81.16c10.375 0 13.031-21.809 11.789-24.309 0 0 0.80469 7.082-9.1562 11.582-11.176 5.0273-7.2891 12.727-2.6328 12.727z"/>
  <path d="m24.23 49.984c10.375 0 13.031-21.816 11.789-24.309 0 0 0.80469 7.082-9.1562 11.566-11.176 5.0391-7.2891 12.742-2.6328 12.742z"/>
  <path d="m24.23 35.031c10.375 0 13.031-21.797 11.789-24.297 0 0 0.80469 7.0977-9.1562 11.562-11.176 5.0508-7.2891 12.734-2.6328 12.734z"/>
  <path d="m19.375 23.461c11.004 0-0.60547-23.461-0.60547-23.461-1.4023 2.207-10.398 23.461 0.60547 23.461z"/>
  <path d="m49.129 98.969l6.6406-11.621c0.52734-1.1172-1.4062-0.8125-3.2188-1.6445-1.8438-0.85547-2.8242-2.5391-3.3516-1.3984l-4.5273 12.953c-0.58203 1.2656 3.2227 4.3398 4.457 1.7109z"/>
  <path d="m58.133 54.469c-7.1172-8.2734-3.4102-14.355-3.4102-14.355-2.1914 1.7383-8.9492 22.648 0.44922 27.016 4.2109 1.9648 10.992-3.375 2.9609-12.66z"/>
  <path d="m64.629 40.484c-7.1211-8.2539-3.418-14.336-3.418-14.336-2.1953 1.7305-8.9609 22.637 0.44141 27.02 4.2266 1.9531 10.996-3.3711 2.9766-12.684z"/>
  <path d="m70.926 26.945c-7.1406-8.2422-3.418-14.348-3.418-14.348-2.1875 1.7383-8.9492 22.637 0.45703 27.016 4.2109 1.9492 10.988-3.3711 2.9609-12.668z"/>
  <path d="m65.293 71.844c9.4062 4.3555 21.016-14.281 20.922-17.09 0 0-2.2461 6.7656-13.176 6.6406-12.25-0.12891-11.965 8.4805-7.7461 10.449z"/>
  <path d="m51.492 68.781c-7.1328-8.2695-3.4258-14.344-3.4258-14.344-2.1875 1.7305-8.9492 22.637 0.45703 26.988 4.2227 1.9609 10.988-3.3633 2.9688-12.645z"/>
  <path d="m58.645 86.141c9.3984 4.375 21.008-14.281 20.93-17.074 0 0-2.2539 6.7656-13.176 6.6406-12.258-0.13281-11.965 8.4805-7.7539 10.434z"/>
  <path d="m71.789 57.867c9.3984 4.3672 21-14.297 20.922-17.082 0 0-2.2539 6.7578-13.176 6.6406-12.262-0.12891-11.965 8.4961-7.7461 10.441z"/>
  <path d="m78.086 44.301c9.4062 4.3828 20.996-14.27 20.918-17.07 0 0-2.2578 6.7812-13.172 6.6406-12.258-0.12891-11.957 8.4844-7.7461 10.43z"/>
  <path d="m78.547 31.762c9.9727 4.6367 9.3359-21.535 9.3359-21.535-2.1992 1.4336-19.309 16.902-9.3359 21.535z"/>
 </g>
</svg>
