<?xml version="1.0" encoding="UTF-8"?>
<svg fill="#FFFFFF" width="100pt" height="100pt" version="1.1" viewBox="0 0 100 100" xmlns="http://www.w3.org/2000/svg">
 <path d="m97.641 44.102-32.922-32.922c-1.4961-1.5742-3.5664-2.4766-5.7383-2.5078-2.1719-0.027344-4.2617 0.82422-5.8008 2.3594-1.5352 1.5352-2.3867 3.625-2.3633 5.7969 0.027344 2.1758 0.92969 4.2422 2.5039 5.7422l19.461 19.43h-64.723c-4.4492 0-8.0586 3.6094-8.0586 8.0586 0 4.4531 3.6094 8.0625 8.0586 8.0625h64.543l-19.281 19.309c-3.0117 3.1719-2.9492 8.1641 0.14453 11.254s8.0898 3.1523 11.254 0.13672l32.922-32.922c1.5156-1.5078 2.3672-3.5586 2.3594-5.6992 0.003906-0.066407 0.003906-0.13281 0-0.19922 0.003906-0.066406 0.003906-0.13281 0-0.19922 0-2.1367-0.84766-4.1875-2.3594-5.6992z"/>
</svg>
