<?xml version="1.0" encoding="UTF-8"?>
<svg width="86px" height="93px" viewBox="0 0 86 93" version="1.1" xmlns="http://www.w3.org/2000/svg" xmlns:xlink="http://www.w3.org/1999/xlink">
    <title>np_clean-trash-bin_2675905_EE0405</title>
    <g id="Page-1" stroke="none" stroke-width="1" fill="none" fill-rule="evenodd">
        <g id="np_clean-trash-bin_2675905_EE0405" fill="#EE0405" fill-rule="nonzero">
            <path d="M32.734,79.652 C32.804313,80.41372 33.44494,80.984 34.1949,80.984 C34.241776,80.984 34.28865,80.980094 34.33553,80.976187 C35.14412,80.898063 35.73783,80.183217 35.65973,79.374587 L31.84333,39.190587 C31.769111,38.381997 31.05817,37.792187 30.24173,37.866387 C29.43314,37.944511 28.83943,38.659357 28.91753,39.467987 L32.734,79.652 Z" id="Path"></path>
            <path d="M57.80463,80.987812 C58.55463,80.987812 59.19523,80.417502 59.26553,79.655812 C62.38273,40.300812 64.57023,38.132812 61.76163,37.866812 C60.94522,37.792593 60.23433,38.386342 60.16003,39.191012 L56.33973,79.379012 C56.261605,80.183702 56.85535,80.902412 57.66393,80.980612 C57.710876,80.983906 57.75775,80.987812 57.80463,80.987812 Z" id="Path"></path>
            <path d="M74.9259,34.746 L77.2892,34.746 C78.1017,34.746 78.758,34.08584 78.758,33.2772 L78.761907,28.1444 C78.761907,27.3319 78.105657,26.6756 77.293107,26.6756 L69.539207,26.6756 L69.539207,23.0154 C69.539207,22.2029 68.882957,21.5466 68.070407,21.5466 L55.996407,21.5466 L55.996407,18.3396 C55.996407,15.9138 54.019807,13.9373 51.594107,13.9373 L40.410107,13.9373 C37.984307,13.9373 36.007807,15.9139 36.007807,18.3396 L36.007807,21.5466 L23.929807,21.542694 C23.117307,21.542694 22.461007,22.202854 22.461007,23.011494 L22.461007,26.671694 L14.711007,26.671694 C13.898507,26.671694 13.242207,27.331854 13.242207,28.140494 L13.242207,33.269394 C13.242207,34.081894 13.898457,34.738194 14.711007,34.738194 L17.074307,34.738194 L23.929807,90.066 C23.117307,90.066 23.117257,93 23.929807,93 L68.070407,93 C68.882907,93 68.882957,90.066 68.070407,90.066 C69.160207,79.796 73.3243,49.816 74.9259,34.746 Z M38.95,18.336 C38.95,17.53131 39.60625,16.8751 40.4109,16.8751 L51.5949,16.8751 C52.39959,16.8751 53.0558,17.53135 53.0558,18.336 L53.0558,21.543 L38.9508,21.543 L38.95,18.336 Z M25.403,24.4844 L66.602,24.4844 L66.602,26.6719 L25.403,26.6719 L25.403,24.4844 Z M16.1803,29.6133 L75.8213,29.6133 L75.8213,31.8008 L16.1803,31.8008 L16.1803,29.6133 Z M71.9733,34.7422 L66.6569,84.7852 L25.3479,84.7852 L20.0276,34.7422 L71.9733,34.7422 Z M25.9113,90.0662 L25.6613,87.7264 L66.3413,87.7264 L66.0913,90.0662 L25.9113,90.0662 Z" id="Shape"></path>
            <path d="M46,80.984 C46.8125,80.984 47.4688,80.32384 47.4688,79.5152 L47.472706,39.3272 C47.472706,38.5147 46.816456,37.8584 46.003906,37.8584 C45.191356,37.8584 44.5350887,38.51856 44.5350887,39.3272 L44.5350887,79.5152 C44.5312,80.3277 45.187446,80.984 45.999906,80.984 L46,80.984 Z" id="Path"></path>
            <path d="M4.7812,21.402 L7.6992,21.398094 C7.707012,21.343406 8.40623,16.007494 12.2187,16.007494 L12.2187,13.066094 C8.4375,13.066094 7.7265,7.890294 7.6992,7.675494 L4.7812,7.671588 C4.753856,7.890338 4.04292,13.066088 0.2617,13.066088 L0.2617,16.007488 C4.0429,16.007488 4.7539,21.179388 4.7812,21.402 L4.7812,21.402 Z M6.2421,12.3278 C6.71866,13.14421 7.3241,13.9137 8.078,14.5348 C7.32409,15.15589 6.7225,15.9254 6.2421,16.7418 C5.76554,15.92539 5.1601,15.1559 4.4062,14.5348 C5.1562,13.91371 5.7617,13.1442 6.2421,12.3278 L6.2421,12.3278 Z" id="Shape"></path>
            <path d="M78.125,14.719 L78.15625,14.715094 L81.04295,14.719 C81.070293,14.50025 81.78123,9.3245 85.56245,9.3245 L85.56245,6.3831 C81.78125,6.3831 81.07025,1.2073 81.04295,0.9925 L78.12495,0.9925 C78.117138,1.047187 77.41792,6.3831 73.60545,6.3831 L73.60545,9.3245 C77.39065,9.3245 78.09765,14.5003 78.12495,14.719 L78.125,14.719 Z M79.5859,5.6448 C80.06246,6.46121 80.6718,7.2307 81.4218,7.8557 C80.6718,8.47679 80.0663,9.2502 79.5859,10.0666 C79.10934,9.25019 78.5039,8.4807 77.75,7.8557 C78.50391,7.2307 79.1094,6.4612 79.5859,5.6448 Z" id="Shape"></path>
            <path d="M7.906,59.242 C7.898188,59.296687 7.19897,64.6326 3.3865,64.6326 L3.3865,67.574 C7.1677,67.574 7.8787,72.7498 7.906,72.9685 L7.93725,72.964594 L10.82395,72.9685 C10.851293,72.74975 11.56223,67.574 15.34345,67.574 L15.34345,64.6326 C11.56225,64.6326 10.85125,59.4607 10.82395,59.242 L7.906,59.242 Z M9.3669,68.3123 C8.89034,67.49589 8.281,66.7264 7.531,66.1014 C8.281,65.48031 8.8865,64.7069 9.3669,63.8905 C9.84346,64.70691 10.4489,65.4764 11.2028,66.1014 C10.44889,66.7264 9.8434,67.4959 9.3669,68.3123 Z" id="Shape"></path>
        </g>
    </g>
</svg>