<?xml version="1.0" encoding="UTF-8"?>
<svg fill="#EE0405" width="100pt" height="100pt" version="1.1" viewBox="0 0 100 100" xmlns="http://www.w3.org/2000/svg">
 <path d="m50 18c-17.648 0-32 14.352-32 32s14.352 32 32 32 32-14.352 32-32-14.352-32-32-32zm0 4c15.488 0 28 12.512 28 28s-12.512 28-28 28-28-12.512-28-28 12.512-28 28-28zm0 7c-1.1055 0-2 0.89453-2 2v19c0 0.55078 0.23047 1.043 0.59375 1.4062l12 12.031c0.78125 0.78125 2.0625 0.78125 2.8438 0s0.78125-2.0625 0-2.8438l-11.438-11.406v-18.188c0-1.1055-0.89453-2-2-2z"/>
</svg>
