<?xml version="1.0" encoding="UTF-8"?>
<svg fill="#EE0405" width="100pt" height="100pt" version="1.1" viewBox="0 0 100 100" xmlns="http://www.w3.org/2000/svg">
 <path d="m58.367 50 19.492-19.492c2.3125-2.3086 2.3125-6.0625 0-8.3711-2.3125-2.3125-6.0586-2.3125-8.3711 0l-19.492 19.492-19.492-19.492c-2.3125-2.3125-6.0586-2.3125-8.3711 0-2.3125 2.3086-2.3125 6.0625 0 8.3711l19.492 19.492-19.492 19.492c-2.3125 2.3086-2.3125 6.0625 0 8.3711 1.1562 1.1562 2.6719 1.7344 4.1875 1.7344 1.5156 0 3.0312-0.57422 4.1875-1.7344l19.492-19.492 19.492 19.492c1.1562 1.1562 2.6719 1.7344 4.1875 1.7344 1.5156 0 3.0312-0.57422 4.1875-1.7344 2.3125-2.3086 2.3125-6.0625 0-8.3711z" fill-rule="evenodd"/>
</svg>
