<?xml version="1.0" encoding="UTF-8"?>
<svg fill="#EE0405" width="100pt" height="100pt" version="1.1" viewBox="0 0 100 100" xmlns="http://www.w3.org/2000/svg">
 <g>
  <path d="m25 79.266h-0.29297c3.6758-1.7656 6.1758-5.4414 6.1758-9.707 0-5.8828-4.8516-10.734-10.734-10.734-5.8828 0-10.734 4.8516-10.734 10.734 0 4.2656 2.5 7.9414 6.1758 9.707h-0.44141c-7.6484 0-13.68 6.0273-13.68 13.527v4.2656c0 0.88281 0.58984 1.4688 1.4688 1.4688h34.117c0.88281 0 1.4688-0.58984 1.4688-1.4688v-4.2656c0.007812-7.5-6.0234-13.527-13.523-13.527zm-12.648-9.707c0-4.2656 3.5312-7.793 7.793-7.793 4.2656 0 7.793 3.5312 7.793 7.793 0 4.2656-3.5312 7.793-7.793 7.793s-7.793-3.5273-7.793-7.793zm23.238 26.031h-31.18v-2.793c0-5.8828 4.707-10.59 10.59-10.59h10c5.8828 0 10.59 4.707 10.59 10.59z"/>
  <path d="m80.441 75.441h-0.29297c5.1484-1.6172 8.9688-6.6172 8.9688-12.352 0-7.0586-5.8828-12.941-12.941-12.941-7.0586 0-12.941 5.7344-12.941 12.941 0 5.7344 3.8242 10.59 8.9688 12.352h-0.58984c-10 0-18.09 8.0898-18.09 18.09l0.007812 3.5273c0 0.88281 0.58984 1.4688 1.4688 1.4688l42.059 0.003906c0.88281 0 1.4688-0.58984 1.4688-1.4688v-3.5312c0.003906-10-8.0859-18.09-18.086-18.09zm-14.41-12.352c0-5.4414 4.5586-10 10-10 5.5898 0 10 4.4102 10 10s-4.5586 10-10 10-10-4.5586-10-10zm29.559 32.5h-39.266v-2.0586c0-8.3828 6.7656-15.148 15.148-15.148h8.9688c8.3828 0 15.148 6.7656 15.148 15.148z"/>
  <path d="m20.59 44.266l-3.8242 10.293c-0.14844 0.58984 0 1.1758 0.44141 1.6172 0.44141 0.44141 1.1758 0.44141 1.6172 0.14844l12.5-6.9102c1.7656 0.29297 3.5312 0.58984 5.293 0.58984 8.5312 0 15.883-4.1172 19.707-10 3.2344 0.58984 6.4688 0.58984 9.8516-0.14844l12.5 6.9102c0.58984 0.29297 1.1758 0.14844 1.6172-0.14844 0.44141-0.44141 0.58984-1.0312 0.44141-1.6172l-3.8242-10.293c4.1172-3.6758 6.6172-8.5312 6.6172-13.676 0.003906-10.738-9.9961-19.562-22.496-19.562-8.2344 0-15.734 3.8242-19.707 10-1.4688-0.29297-3.0898-0.44141-4.707-0.44141-12.5 0-22.5 8.8242-22.5 19.559 0 5.1484 2.3516 10.148 6.4727 13.68zm40.441-39.855c10.883 0 19.559 7.5 19.559 16.617 0 4.707-2.207 8.9688-6.3242 12.059-0.44141 0.44141-0.73438 1.0312-0.44141 1.6172l2.793 7.6484-9.5586-5.293c-0.29297-0.14844-0.73438-0.29297-1.0312-0.14844-2.9414 0.58984-5.7344 0.73438-8.3828 0.29297 0.88281-2.0586 1.4688-4.4102 1.4688-6.7656 0-8.3828-6.1758-15.59-14.852-18.383 3.6797-4.5547 10.004-7.6445 16.77-7.6445zm-24.414 9.5586c10.883 0 19.559 7.5 19.559 16.617 0 9.1172-8.8242 16.617-19.559 16.617-1.6172 0-3.3828-0.14844-5.1484-0.58984-0.29297-0.14844-0.73438 0-1.0312 0.14844l-9.5586 5.293 2.793-7.6484c0.29297-0.58984 0-1.3242-0.44141-1.6172-3.9688-3.2344-6.3242-7.5-6.3242-12.059 0.15234-9.2617 8.9766-16.762 19.711-16.762z"/>
  <path d="m30.441 30.883c0-2.793-2.3516-5.1484-5.1484-5.1484-2.793 0-5.1445 2.207-5.1445 5.1484 0 2.793 2.3516 5.1484 5.1484 5.1484 2.793 0 5.1445-2.3555 5.1445-5.1484zm-7.3516 0c0-1.1758 1.0312-2.207 2.207-2.207s2.207 1.0312 2.207 2.207c0 1.1758-1.0312 2.207-2.207 2.207-1.1797 0-2.207-1.0312-2.207-2.207z"/>
  <path d="m36.617 36.031c2.793 0 5.1484-2.3516 5.1484-5.1484 0-2.793-2.3516-5.1484-5.1484-5.1484-2.793 0-5.1484 2.3516-5.1484 5.1484 0 2.793 2.3555 5.1484 5.1484 5.1484zm0-7.3555c1.1758 0 2.207 1.0312 2.207 2.207 0 1.1758-1.0312 2.207-2.207 2.207-1.1758 0-2.207-1.0312-2.207-2.207 0-1.3242 1.0312-2.207 2.207-2.207z"/>
  <path d="m47.941 36.031c2.793 0 5.1484-2.3516 5.1484-5.1484 0-2.793-2.3516-5.1484-5.1484-5.1484-2.793 0-5.1484 2.3516-5.1484 5.1484 0 2.793 2.3555 5.1484 5.1484 5.1484zm0-7.3555c1.1758 0 2.207 1.0312 2.207 2.207 0 1.1758-1.0312 2.207-2.207 2.207-1.1758 0-2.207-1.0312-2.207-2.207 0-1.3242 1.0312-2.207 2.207-2.207z"/>
  <path d="m56.031 14.707h18.09c0.88281 0 1.4688-0.58984 1.4688-1.4688 0-0.88281-0.58984-1.4688-1.4688-1.4688l-18.09-0.003906c-0.88281 0-1.4688 0.58984-1.4688 1.4688-0.003906 0.73438 0.73047 1.4727 1.4688 1.4727z"/>
  <path d="m74.117 18.383h-13.676c-0.88281 0-1.4688 0.58984-1.4688 1.4688 0 0.88281 0.58984 1.4688 1.4688 1.4688h13.676c0.88281 0 1.4688-0.58984 1.4688-1.4688 0.003906-0.88281-0.58594-1.4688-1.4688-1.4688z"/>
  <path d="m74.117 25h-10.734c-0.88281 0-1.4688 0.58984-1.4688 1.4688 0 0.88281 0.58984 1.4688 1.4688 1.4688h10.734c0.88281 0 1.4688-0.58984 1.4688-1.4688 0.003906-0.87891-0.58594-1.4688-1.4688-1.4688z"/>
 </g>
</svg>
