<?xml version="1.0" encoding="UTF-8"?>
<svg fill="#019443" width="100pt" height="100pt" version="1.1" viewBox="0 0 100 100" xmlns="http://www.w3.org/2000/svg">
 <path d="m75.008 28.98c-1.0391 0.03125-2.0273 0.46875-2.75 1.2188-9.9258 9.9492-20.551 21.348-30.469 31.406l-14.156-11.656c-0.80078-0.78516-1.8945-1.1992-3.0156-1.1406-1.1172 0.0625-2.1602 0.58984-2.875 1.457-0.71094 0.86328-1.0273 1.9883-0.87109 3.1016 0.16016 1.1094 0.77344 2.1016 1.6992 2.7383l17 14c1.5898 1.3125 3.9141 1.2031 5.375-0.25 10.75-10.773 22.414-23.391 33-34 1.1953-1.1562 1.5508-2.9258 0.89844-4.4492-0.65234-1.5273-2.1758-2.4922-3.8359-2.4258z"/>
</svg>
