<?xml version="1.0" encoding="UTF-8"?>
<svg fill="#EE0405" width="100pt" height="100pt" version="1.1" viewBox="0 0 100 100" xmlns="http://www.w3.org/2000/svg">
 <g>
  <path d="m93.922 37.539v-0.070312c-0.058594-0.11719-0.13672-0.22266-0.23047-0.30859l-10.621-8.7695v-11.629c0-0.26562-0.10547-0.51953-0.29297-0.70703s-0.44141-0.29297-0.70703-0.29297h-14.281l-13.051-10.762c-2.5391-2.0898-6.1992-2.0898-8.7383 0l-13 10.762h-14.309c-0.55469 0-1 0.44531-1 1v11.629l-10.582 8.7578c-0.09375 0.089843-0.17188 0.19531-0.23047 0.3125-0.003906 0.023437-0.003906 0.046874 0 0.070312-0.050781 0.11719-0.078125 0.25-0.078125 0.37891v56.469c0.003907 0.11719 0.027344 0.23438 0.070313 0.33984v0.082031c0.042968 0.09375 0.10156 0.17969 0.16797 0.25781 0.066407 0.066406 0.14063 0.12109 0.22266 0.17188h0.12891c0.10938 0.042969 0.23047 0.066406 0.34766 0.070312h85.262c0.12109-0.003906 0.23828-0.027343 0.35156-0.070312h0.12891c0.078125-0.050781 0.15234-0.10547 0.21875-0.17188 0.070312-0.078125 0.125-0.16406 0.17188-0.25781v-0.082031c0.042968-0.10547 0.066406-0.22266 0.070312-0.33984v-56.457c0.015625-0.12891 0.007813-0.25781-0.019531-0.38281zm-10.852-6.5391 8.3594 6.9297-8.3594 6.9297zm-35.789-24.512c1.7969-1.4766 4.3906-1.4766 6.1875 0l11.191 9.2695-28.57 0.003907zm-27.59 11.273h61.379v28.738l-26.621 22-1 0.80078c-1.7969 1.4805-4.3906 1.4805-6.1875 0l-27.57-22.801zm-2 13.238v13.852l-8.3711-6.9297zm-8.9414 9.0508 0.070312 0.058594 35.18 29.109-35.25 23.301zm2.3203 53.328 34.531-22.828 0.41016 0.33984c2.5352 2.0781 6.1914 2.0781 8.7266 0l0.41016-0.33984 34.531 22.828zm80.93-0.85938-35.238-23.301 34.938-28.918 0.30078-0.25z"/>
  <path d="m57.391 35.738c0.046875-0.22266-0.070313-0.44922-0.28125-0.53906-1.3594-0.58594-2.8281-0.87891-4.3086-0.85938-5.2969 0.011718-9.5859 4.3047-9.5898 9.6016 0 3.5 2.3281 5.3281 4.6406 5.3281 2.0391 0.03125 3.9648-0.94531 5.1484-2.6094 0.10938 0.61328 0.39844 1.1797 0.82812 1.6289 0.63281 0.65234 1.5039 1.0156 2.4102 1 3.6406 0 7.3281-3.3086 7.3281-9.6289 0-6.8203-4.8008-11.59-11.672-11.59-8.2617 0-14.5 6.5508-14.5 15.23 0 7.2305 5.1016 12.469 12.129 12.469h0.007812c2.4492 0.078125 4.8789-0.46875 7.0586-1.5898 0.22266-0.11719 0.32031-0.38281 0.23047-0.62109l-0.60937-1.6484c-0.054688-0.13672-0.16406-0.24219-0.30078-0.28906-0.13281-0.0625-0.28516-0.0625-0.42188 0-1.6914 0.88672-3.5781 1.3281-5.4883 1.2891-5.6016 0-9.3594-4-9.3594-9.8594 0-7.0898 4.6289-12.23 11-12.23 5.4219 0 8.7812 3.4688 8.7812 9 0.13281 2.0742-0.54688 4.1172-1.8906 5.6992-0.44531 0.48438-1.0586 0.77734-1.7109 0.82031-0.22656 0.003906-0.44141-0.089844-0.58984-0.26172-0.21875-0.28906-0.53906-1.1211-0.078125-3.4414zm-4.3906 5.6523c-0.39844 2.2305-2.3086 4.8086-4.1914 4.8086-1.8789 0-2-1.6914-2-2.4219 0-3.4688 2.5586-6.3984 5.6016-6.3984 0.44922 0 0.89844 0.042969 1.3398 0.13281z"/>
 </g>
</svg>
