<?xml version="1.0" encoding="UTF-8"?>
<svg fill="#EE0405" width="100pt" height="100pt" version="1.1" viewBox="0 0 100 100" xmlns="http://www.w3.org/2000/svg">
 <g fill-rule="evenodd">
  <path d="m86.508 22.957c-2.5859 0.80078-5.0508 1.5781-7.7188 2.293 0.019532-0.92969-0.027343-2.2578 0-2.8867-6.8906-0.80078-14.688-1.6016-21.809-2.3281-1.0781-0.10938-2.2812-0.046875-3.168-0.27734-0.65625-0.17578-1.1992-0.86328-1.957-1.1211-1.9258-0.65234-6.3945-0.28516-6.4297 1.5859-0.035156 1.7969 3.4062 2.2617 5.5938 1.8633 0.87109-0.15625 1.5547-0.74219 2.2344-0.83594 0.79688-0.10938 2.0039 0.17969 3.0742 0.27734 6.7734 0.64844 14.145 1.543 20.871 2.1406v2.1445c-8.1328 2.3086-16.328 4.8555-24.602 7.3594-1.1367 0.34375-2.6406 0.99609-3.5391 1.0234-1.1484 0.035157-3.1836-0.96094-4.5664-1.3984-10.375-3.2852-20.824-6.6953-31.125-9.9688v-3.8203c11.746-3.1953 23.828-6.1719 35.41-9.3203 1.2266-0.33203 3.6602 0.60938 5.2188 1.0234 10.555 2.8281 21.969 5.8984 32.523 8.6641z"/>
  <path d="m78.605 26.539h0.1875v6.6133c1.6016 0.52734 2.6289 3.1367 1.2109 4.5664 2.5703 0.78516 1.2734 5.4336 1.5859 8.4766-2.0625 0.875-5.2266 0.82813-7.3633 0 0.30859-3.0156-0.96875-7.6172 1.5859-8.3867-1.2773-1.4727-0.48828-4.3516 1.3984-4.5664v-6.2422c0.40625-0.20703 0.97266-0.26172 1.3945-0.46094z"/>
  <path d="m70.312 30.75c-7.2617 1.9961-14.289 4.2227-21.434 6.3359-7.3203-2.4023-14.699-4.7461-22.086-7.082-0.10938 0.015625-0.10156 0.14844-0.09375 0.27734-0.003907 6.2422 0.007812 12.199 0 18.262 7.9414 7.1094 28.648 8.6523 39.512 2.8906 1.1992-0.63672 3.9766-2.0977 4.1016-3.0742z"/>
  <path d="m49.902 90.664c-15.223-7.1445-30.621-14.109-45.945-21.152-3.2695-3.1992-3.4883-11.957-0.74609-15.938 6.8086-3.1641 13.621-6.3203 20.504-9.4102 0.085937 1.8203-0.35938 3.9492 0 5.6836 0.24609 1.1797 3.7109 2.8281 4.8477 3.4492 5.1797 2.8242 12.453 4.7539 19.941 4.7539 11.195 0 19.551-2.8398 24.789-8.1094v-1.3047c3.4375 1.3789 8.668 0.67578 11.367-0.83984v-6.707c4.5039 2.4219 8.918 4.9375 13.418 7.3594-16.5 8.1367-33.137 16.129-49.668 24.23-14.23-5.9297-28.34-11.98-42.492-17.984-2.625 2.5664-2.6055 9.7812-0.37109 12.766 13.578 6.1719 43.297 20.031 43.797 20.035 0.57422 0.003906 2.2148-1.0352 3.0742-1.4883 14.656-7.7383 29.688-15.438 44.355-23.109 0.35937-0.10938 0.11719-0.81641 0.1875-1.2148 0.49609 0.40234 1.1562 0.64453 1.582 1.1211 0.074219 0.72656-0.14062 1.1641-0.09375 1.8633z"/>
  <path d="m48.469 76.957l-41.895-18.543-0.10547-0.77734 41.895 18.543z"/>
  <path d="m48.809 80.898l-41.895-18.543-0.10937-0.77734 41.895 18.543z"/>
  <path d="m49.031 84.59l-41.895-18.539-0.10547-0.78125 41.895 18.543z"/>
 </g>
</svg>
