<?xml version="1.0" encoding="UTF-8"?>
<svg fill="#EE0405" width="100pt" height="100pt" version="1.1" viewBox="0 0 100 100" xmlns="http://www.w3.org/2000/svg">
 <path d="m94.461 92.203c-0.83984-6.082-3.1914-16.438-5.1992-18.203-0.11719-0.10547-26.188-11.859-26.188-11.859 3.0352-3.7422 5.0977-8.1133 5.9648-11.312 2.2617-1.5195 3.1836-6.4609 2.5391-9.8555l19.492-1.9219c0.73438-0.070312 1.3086-0.66406 1.3594-1.3984 0.050781-0.73438-0.43359-1.3984-1.1523-1.5742l-19.152-4.6484c-0.11719-3.4375-1.0234-13.215-7.2695-19.617-3.707-3.8008-8.6328-5.7305-14.637-5.7305-6.0078 0-10.883 1.9297-14.484 5.7383-6.0312 6.3789-6.668 16.098-6.6914 19.594l-21.113 4.6562c-0.72656 0.16016-1.2266 0.82422-1.1836 1.5664 0.046875 0.74219 0.62109 1.3398 1.3633 1.4102l21.164 2.0391c-0.53125 3.6641 0.66016 8.4531 2.6055 9.7617 0.60547 2.2539 2.2148 7.207 5.5312 11.523 0 0-26.512 11.496-26.645 11.625-1.8672 1.8203-4.2656 13.281-5.2148 18.121-0.085937 0.44141 0.03125 0.90234 0.31641 1.25 0.28516 0.34766 0.71484 0.55078 1.1641 0.55078h85.93c0.4375 0 0.85156-0.1875 1.1406-0.51953 0.28906-0.32813 0.41797-0.76172 0.35938-1.1953zm-20.57-9.8164h3.8594v9.2383l-54.848 0.003906v-9.2383h4.2188c0.47266 0 0.85547-0.38281 0.85547-0.85547v-11.793l5.9023-2.5508v14.34c0 0.47266 0.38281 0.85547 0.85547 0.85547h31.543c0.47266 0 0.85547-0.38281 0.85547-0.85547l0.003907-14.355 5.9023 2.5391v11.816c-0.003906 0.47266 0.37891 0.85547 0.85156 0.85547zm-33.215-18.164c2.8672 2.5625 6.0859 3.8672 9.5898 3.8672 3.2266 0 6.4805-1.4219 9.4922-4.1211 0.070313 0.046875 1.9883 0.89062 1.9883 0.89062-0.64062 3.6211-3.8984 6.3906-7.8164 6.3906h-7.6016c-4.0273 0-7.1445-2.5664-7.6758-6.1211 0.003906 0 1.957-0.86328 2.0234-0.90625zm-6.0312-14.762c-0.125-0.52734-0.52344-0.94531-1.043-1.0977-0.085937-0.027343-0.41016-0.28906-0.74609-1.1328-0.83594-2.1016-0.054688-6.5977 0.054687-6.8594 6.6484 0.37891 28.43 0.36719 34.988-0.027344 0.12891 0.26562 0.98828 4.457 0.22656 6.6367-0.34766 0.99609-0.70312 1.3203-0.79688 1.3555-0.53125 0.15234-0.9375 0.58203-1.0586 1.1172-0.71875 3.1758-6.5469 16.93-16.004 16.93-10.211-0.003906-15.199-15.152-15.621-16.922zm-3.3555 34.176c-1.6055 0-2.9102 1.3047-2.9102 2.9102s1.3047 2.9102 2.9102 2.9102c1.6055 0 2.9102-1.3047 2.9102-2.9102s-1.3047-2.9102-2.9102-2.9102zm38.797 0c-1.6055 0-2.9102 1.3047-2.9102 2.9102s1.3047 2.9102 2.9102 2.9102c1.6055 0 2.9102-1.3047 2.9102-2.9102-0.003906-1.6055-1.3086-2.9102-2.9102-2.9102z"/>
</svg>
