<?xml version="1.0" encoding="UTF-8"?>
<svg fill="#EE0405" width="100pt" height="100pt" version="1.1" viewBox="0 0 100 100" xmlns="http://www.w3.org/2000/svg">
 <g>
  <path d="m58.445 66.844c5.0781-2.5547 8.7305-7.2695 9.9336-12.824 1.2031-5.5586-0.17188-11.359-3.7422-15.785-3.5703-4.4258-8.9531-6.9961-14.637-6.9961s-11.066 2.5703-14.637 6.9961c-3.5703 4.4258-4.9453 10.227-3.7422 15.785 1.2031 5.5547 4.8555 10.27 9.9336 12.824-6.9453 1.875-13.082 5.9883-17.457 11.695-4.3789 5.7109-6.7539 12.703-6.7617 19.898 0 0.86328 0.69922 1.5625 1.5625 1.5625 0.86328 0 1.5625-0.69922 1.5625-1.5625 0-10.566 5.6367-20.332 14.789-25.617 9.1523-5.2812 20.426-5.2812 29.578 0 9.1523 5.2852 14.789 15.051 14.789 25.617 0 0.86328 0.69922 1.5625 1.5625 1.5625 0.86328 0 1.5625-0.69922 1.5625-1.5625-0.011719-7.2031-2.3984-14.203-6.793-19.914-4.3906-5.7148-10.543-9.8164-17.504-11.68zm-24.125-16.789c0-4.1602 1.6523-8.1484 4.5938-11.086 2.9375-2.9414 6.9258-4.5938 11.086-4.5938s8.1484 1.6523 11.086 4.5938c2.9414 2.9375 4.5938 6.9258 4.5938 11.086 0 4.1602-1.6523 8.1484-4.5938 11.086-2.9375 2.9414-6.9258 4.5938-11.086 4.5938-4.1562-0.003906-8.1445-1.6562-11.082-4.5977-2.9414-2.9375-4.5938-6.9258-4.5977-11.082z"/>
  <path d="m56.094 21.875c-0.25391 0-0.50391-0.0625-0.72656-0.17969l-5.3672-2.8203-5.3672 2.8203c-0.52734 0.27734-1.1641 0.23047-1.6445-0.12109-0.48047-0.34766-0.72266-0.94141-0.62109-1.5273l1.0234-5.9844-4.3281-4.2188c-0.42578-0.41406-0.57812-1.0352-0.39453-1.5977 0.17969-0.56641 0.66797-0.98047 1.2539-1.0664l5.9922-0.875 2.6875-5.4297c0.26563-0.53125 0.80469-0.86719 1.3984-0.86719s1.1328 0.33594 1.3984 0.86719l2.6875 5.4688 5.9922 0.83594c0.58594 0.085937 1.0742 0.5 1.2539 1.0664 0.18359 0.5625 0.03125 1.1836-0.39453 1.5977l-4.3281 4.2188 1.0234 5.9766c0.078126 0.45703-0.050781 0.92578-0.35156 1.2812-0.30078 0.35156-0.74609 0.55469-1.2109 0.54688zm-6.0938-6.3281c0.25391 0 0.50391 0.0625 0.72656 0.17969l3.2891 1.7266-0.625-3.6641c-0.089844-0.50781 0.078125-1.0234 0.44531-1.3828l2.6641-2.5938-3.6797-0.53125c-0.50781-0.074219-0.94531-0.39453-1.1719-0.85156l-1.6484-3.3359-1.6406 3.3359c-0.23047 0.46094-0.67188 0.77734-1.1797 0.85156l-3.6797 0.53125 2.6641 2.5938c0.36719 0.35938 0.53516 0.875 0.44531 1.3828l-0.625 3.6641 3.2891-1.7266c0.22266-0.11719 0.47266-0.17969 0.72656-0.17969z"/>
  <path d="m24.062 38.281c-0.25391 0-0.50391-0.0625-0.72656-0.17969l-5.3672-2.8203-5.3672 2.8203c-0.52734 0.27734-1.1641 0.23047-1.6445-0.12109-0.48047-0.34766-0.72266-0.94141-0.62109-1.5273l1.0234-5.9844-4.3281-4.2188c-0.42578-0.41406-0.57812-1.0352-0.39453-1.6016 0.18359-0.56641 0.67188-0.97656 1.2617-1.0625l5.9922-0.875 2.6875-5.4297c0.26562-0.53125 0.80469-0.86719 1.3984-0.86719s1.1328 0.33594 1.3984 0.86719l2.6875 5.4688 5.9922 0.875c0.57031 0.10156 1.0352 0.50781 1.2148 1.0547 0.17969 0.55078 0.039063 1.1562-0.36328 1.5703l-4.3281 4.2188 1.0234 5.9766c0.078126 0.45703-0.050781 0.92578-0.35156 1.2812-0.30078 0.35156-0.74609 0.55469-1.2109 0.54688zm-6.0938-6.3281c0.25391 0 0.50391 0.0625 0.72656 0.17969l3.2891 1.7266-0.625-3.6641c-0.089844-0.50781 0.078125-1.0234 0.44531-1.3828l2.6641-2.5938-3.6797-0.53125c-0.50781-0.074219-0.94531-0.39453-1.1719-0.85156l-1.6484-3.3359-1.6406 3.3359c-0.23047 0.46094-0.67188 0.77734-1.1797 0.85156l-3.6797 0.53125 2.6641 2.5938c0.36719 0.35938 0.53516 0.875 0.44531 1.3828l-0.625 3.6641 3.2891-1.7266c0.22266-0.11719 0.47266-0.17969 0.72656-0.17969z"/>
  <path d="m88.125 38.281c-0.25391 0-0.50391-0.0625-0.72656-0.17969l-5.3672-2.8203-5.3672 2.8203c-0.52734 0.27734-1.1641 0.23047-1.6445-0.12109-0.48047-0.34766-0.72266-0.94141-0.62109-1.5273l1.0234-5.9844-4.3281-4.2188c-0.42578-0.41406-0.57812-1.0352-0.39453-1.6016 0.18359-0.56641 0.67188-0.97656 1.2617-1.0625l5.9922-0.875 2.6875-5.4297c0.26562-0.53125 0.80469-0.86719 1.3984-0.86719s1.1328 0.33594 1.3984 0.86719l2.6875 5.4688 5.9922 0.875c0.57031 0.10156 1.0352 0.50781 1.2148 1.0547 0.17969 0.55078 0.039063 1.1562-0.36328 1.5703l-4.3281 4.2188 1.0234 5.9766c0.078126 0.45703-0.050781 0.92578-0.35156 1.2812-0.30078 0.35156-0.74609 0.55469-1.2109 0.54688zm-6.0938-6.3281c0.25391 0 0.50391 0.0625 0.72656 0.17969l3.2891 1.7266-0.625-3.6641c-0.089844-0.50781 0.078125-1.0234 0.44531-1.3828l2.6641-2.5938-3.6797-0.53125c-0.50781-0.074219-0.94531-0.39453-1.1719-0.85156l-1.6484-3.3359-1.6406 3.3359c-0.23047 0.46094-0.67188 0.77734-1.1797 0.85156l-3.6797 0.53125 2.6641 2.5938c0.36719 0.35938 0.53516 0.875 0.44531 1.3828l-0.625 3.6641 3.2891-1.7266c0.22266-0.11719 0.47266-0.17969 0.72656-0.17969z"/>
  <path d="m5.3281 68.75c-0.46484 0.007812-0.91016-0.19531-1.2109-0.54688-0.30078-0.35547-0.42969-0.82422-0.35156-1.2812l1.0469-5.9844-4.3438-4.2188c-0.42578-0.41406-0.57812-1.0352-0.39453-1.6016 0.18359-0.56641 0.67188-0.97656 1.2617-1.0625l6-0.875 2.6797-5.4297c0.26172-0.53516 0.80469-0.875 1.4023-0.875 0.59766 0 1.1406 0.33984 1.4023 0.875l2.6797 5.4297 6 0.875c0.58984 0.085937 1.0781 0.49609 1.2617 1.0625 0.18359 0.56641 0.03125 1.1875-0.39453 1.6016l-4.3438 4.2188 1.0234 5.9766c0.10156 0.58594-0.14062 1.1797-0.62109 1.5273-0.48047 0.35156-1.1172 0.39844-1.6445 0.12109l-5.3594-2.8203-5.3672 2.8281c-0.22266 0.11719-0.47266 0.17969-0.72656 0.17969zm-0.40625-12.062 2.6562 2.5938c0.37109 0.35938 0.53906 0.875 0.45312 1.3828l-0.63281 3.6641 3.2969-1.7266c0.45313-0.23828 1-0.23828 1.4531 0l3.2891 1.7266-0.59375-3.6641c-0.085938-0.50781 0.082031-1.0234 0.45312-1.3828l2.6562-2.5938-3.6719-0.53125c-0.50781-0.074219-0.94922-0.39062-1.1797-0.85156l-1.6406-3.3359-1.6484 3.3359c-0.23828 0.47266-0.69531 0.79297-1.2188 0.85156z"/>
  <path d="m94.672 68.75c-0.25391 0-0.50391-0.0625-0.72656-0.17969l-5.3672-2.8203-5.3594 2.8203c-0.52734 0.27734-1.1641 0.23047-1.6445-0.12109-0.48047-0.34766-0.72266-0.94141-0.62109-1.5273l1.0234-5.9844-4.3438-4.2188c-0.42578-0.41406-0.57812-1.0352-0.39453-1.6016 0.18359-0.56641 0.67188-0.97656 1.2617-1.0625l6-0.875 2.6797-5.4297c0.26172-0.53516 0.80469-0.875 1.4023-0.875 0.59766 0 1.1406 0.33984 1.4023 0.875l2.6797 5.4297 6 0.875c0.58984 0.085937 1.0781 0.49609 1.2617 1.0625 0.18359 0.56641 0.03125 1.1875-0.39453 1.6016l-4.3438 4.2188 1.0234 5.9766c0.078124 0.45703-0.050782 0.92578-0.35156 1.2812-0.30078 0.35156-0.74609 0.55469-1.2109 0.54688zm-6.0938-6.3281c0.25391 0 0.50391 0.0625 0.72656 0.17969l3.2969 1.7266-0.63281-3.6641c-0.085938-0.50781 0.082031-1.0234 0.45312-1.3828l2.6562-2.5938-3.6719-0.53125c-0.50781-0.074219-0.94922-0.39062-1.1797-0.85156l-1.6484-3.3359-1.6406 3.3359c-0.23047 0.46094-0.67188 0.77734-1.1797 0.85156l-3.6719 0.53125 2.6562 2.5938c0.37109 0.35938 0.53906 0.875 0.45312 1.3828l-0.63281 3.6641 3.2891-1.7266c0.22266-0.11719 0.47266-0.17969 0.72656-0.17969z"/>
 </g>
</svg>
