<?xml version="1.0" encoding="UTF-8"?>
<svg fill="#EE0405" width="100pt" height="100pt" version="1.1" viewBox="0 0 100 100" xmlns="http://www.w3.org/2000/svg">
 <g>
  <path d="m67.102 48.5-1.8984 1.6016 22.797 26.598c1.3008 1.8008 0.69922 6-1.1016 7.3984-0.80078 0.60156-2.3008 0.80078-3.8984 0.60156-1.5-0.19922-2.8984-0.89844-3.5-1.6992l-23.602-38.398c-0.19922-0.30078-0.5-0.5-0.80078-0.60156-0.30078-0.10156-0.69922 0-1 0.19922l-8.1992 6.1016-11-14.699 23.602-17.5c0.30078-0.19922 0.5-0.60156 0.5-1v-7.4023l2.1016-1.5 17.699 24-2.1992 1.6016-5.6016-1-9-12.199-2 1.5 8.6016 11.602-6.6016 4.8008 1.5 2 7.1016-5.3008 6.1016 1.1016c0.30078 0.10156 0.69922 0 1-0.19922l3.6016-2.6992c0.60156-0.39844 0.69922-1.1992 0.30078-1.6992l-19.199-26c-0.19922-0.30078-0.5-0.39844-0.80078-0.5-0.30078 0-0.69922 0-0.89844 0.19922l-3.707 2.6953c-0.30078 0.19922-0.5 0.60156-0.5 1l0.10156 7.3984-23.602 17.5-7-2.3008c-0.39844-0.10156-0.80078-0.10156-1.1016 0.19922l-3.6016 2.6992c-0.60156 0.39844-0.69922 1.1992-0.30078 1.6992l19.199 26c0.19922 0.30078 0.5 0.39844 0.80078 0.5 0.30078 0 0.69922 0 0.89844-0.19922l3.6016-2.6992c0.30078-0.19922 0.5-0.5 0.5-0.80078l0.80078-6.1992 7.6992-5.6992 22.898 37.199s0 0.10156 0.10156 0.10156c1 1.3984 2.8984 2.3984 5.1016 2.6992 0.5 0.10156 1.1016 0.10156 1.6016 0.10156 1.6016 0 3.1016-0.39844 4.1016-1.1992 2.8984-2.1992 3.8008-7.8984 1.6016-10.898zm-25.703 11.199-17.699-24 2.1016-1.5 6.6992 2.1992 11.898 16.102-0.69922 5.6992z"/>
  <path d="m55.102 83.801h-9.5v-6c0-0.69922-0.60156-1.3008-1.3008-1.3008h-25.102v2.5h24v4.6992h-33.098c-0.69922 0-1.3008 0.60156-1.3008 1.3008v8.5c0 0.69922 0.60156 1.3008 1.3008 1.3008h33.199v-2.5h-32v-6h42.598v7.3008h2.5v-8.5c0-0.70312-0.59766-1.3008-1.2969-1.3008z"/>
 </g>
</svg>
