<?xml version="1.0" encoding="UTF-8"?>
<svg fill="#EE0405" width="100pt" height="100pt" version="1.1" viewBox="0 0 100 100" xmlns="http://www.w3.org/2000/svg">
 <g>
  <path d="m61.367 24.73c3.3281 0 6.0273-2.6992 6.0273-6.0273 0-3.3359-2.6992-6.0312-6.0273-6.0273-3.3359-0.007812-6.0352 2.6914-6.0273 6.0273-0.003906 3.3281 2.6953 6.0312 6.0273 6.0273z"/>
  <path d="m53.605 35.828l0.039062 46.051c0.015625 4.5977 6.7852 4.5547 6.7695-0.10547l0.039063-26.801h1.3086v26.766c-0.015625 4.6836 6.8398 4.8008 6.8438 0.14062v-46.266h1.207v16.523c-0.015625 3.9688 5.3633 3.9688 5.3516 0.070312l-0.003906-18.043c0.011719-4.8711-3.6016-7.7305-7.4062-7.7266h-10.746c-2.543 0-4.3906 1.0078-5.957 3.2266l-5.4258 7.9062h-9.3945c-3.7969 0-3.5859 5.3672-0.070313 5.3516h10.848c0.84375 0.015625 1.8789-0.30078 2.4805-1.207z"/>
  <path d="m35.914 64.047v-4.3945h-4.3945v4.3945z"/>
  <path d="m38.324 54.262l-3.2266-3.1914-3.2266 3.1914 3.2266 3.2266z"/>
  <path d="m35.312 48.199l-3.2266-3.1875-3.1914 3.1875 3.1914 3.2266z"/>
  <path d="m41.977 85.281l5.7422-30.453h-4.3242l-5 26.199h-7.4414l-4.9258-26.199h-4.293l5.6016 30.453z"/>
  <path d="m50 0c-27.57 0-50 22.43-50 50s22.43 50 50 50 50-22.43 50-50-22.43-50-50-50zm44.035 50c0 11.07-4.1133 21.188-10.883 28.934l-62.086-62.086c7.7461-6.7656 17.863-10.883 28.934-10.883 24.281 0 44.035 19.754 44.035 44.035zm-88.07 0c0-11.07 4.1133-21.191 10.883-28.934l62.086 62.086c-7.7461 6.7695-17.863 10.883-28.934 10.883-24.281 0-44.035-19.754-44.035-44.035z"/>
 </g>
</svg>
