<?xml version="1.0" encoding="UTF-8"?>
<svg fill="#EE0405" width="100pt" height="100pt" version="1.1" viewBox="0 0 100 100" xmlns="http://www.w3.org/2000/svg">
 <g>
  <path d="m79.922 75.953-0.35938-0.23438c-1.2344-0.84375-6.7969-4.4688-10.469-6.875-1.5625-1.0312-2.875-1.8594-3.3594-2.1875-3.5703-2.2656-8.2891-1.3477-10.75 2.0938l-0.4375 0.54688c-1.375 1.7188-2.7969 3.5156-5.0781 3.6406-3.25 0.20312-7.8125-2.7188-13.719-8.625s-8.8125-10.531-8.6406-13.719c0.14062-2.2969 1.9219-3.7188 3.6406-5.0938l0.5-0.5c3.418-2.4727 4.3047-7.1875 2.0156-10.734l-2.0625-3.125c-2.4531-3.7344-6.1406-9.375-6.9844-10.656l-0.23438-0.34375c-1.2656-1.875-3.3594-5-7.8125-4.3594-3.0625 0.39062-14.609 6.3906-14.609 19.422 0 11.328 8.2812 26.094 22.719 40.531s29.172 22.703 40.5 22.703c13.031 0 19.047-11.562 19.484-14.672 0.64062-4.4531-2.4844-6.5625-4.3438-7.8125zm1.25 7.375c-0.34375 2.4375-5.5469 11.984-16.391 11.984-10.5 0-24.469-7.9375-38.312-21.875s-21.781-27.734-21.781-38.234c0.027344-3.6523 1.1992-7.2031 3.3477-10.152 2.1484-2.9531 5.1719-5.1562 8.6367-6.3008h0.67188c1.8906 0 2.9062 1.2812 4.1094 3.125l0.25 0.35938c0.82812 1.2188 4.5 6.875 6.9375 10.609l2.0781 3.125c1.3867 2.2148 0.78125 5.1328-1.375 6.6094l-0.53125 0.42188c-1.9375 1.5625-4.6875 3.6562-4.8125 7.3438-0.25 4.25 2.7812 9.375 9.5312 16.109s11.891 9.7969 16.109 9.5469c3.6875-0.21875 5.8125-2.875 7.3594-4.8281l0.42188-0.53125c1.4805-2.1758 4.418-2.7852 6.6406-1.375l3.3594 2.2031c3.6719 2.3906 9.2188 6 10.422 6.8281l0.375 0.25c1.9219 1.3281 3.2969 2.4375 3.0312 4.7812z"/>
  <path d="m46.875 1.5625v3.125c12.848 0 25.168 5.1016 34.25 14.188 9.0859 9.082 14.188 21.402 14.188 34.25h3.125c0-13.676-5.4336-26.789-15.102-36.461-9.6719-9.668-22.785-15.102-36.461-15.102z"/>
  <path d="m79.688 53.125h3.125c0-9.5312-3.7852-18.672-10.527-25.41-6.7383-6.7422-15.879-10.527-25.41-10.527v3.125c8.7031 0 17.047 3.457 23.203 9.6094 6.1523 6.1562 9.6094 14.5 9.6094 23.203z"/>
  <path d="m62.5 53.125h3.125c0-4.9727-1.9766-9.7422-5.4922-13.258-3.5156-3.5156-8.2852-5.4922-13.258-5.4922v3.125c4.1445 0 8.1172 1.6445 11.047 4.5781 2.9336 2.9297 4.5781 6.9023 4.5781 11.047z"/>
 </g>
</svg>
