<?xml version="1.0" encoding="UTF-8"?>
<svg fill="#FFFFFF" width="100pt" height="100pt" version="1.1" viewBox="0 0 100 100" xmlns="http://www.w3.org/2000/svg">
 <path d="m30.93 36.938 7.8086-7.8086s1.2031-2.4023 0-3.9023c-0.90234-1.2031-13.812-14.414-13.812-14.414s-2.7031-1.8008-5.707 0.30078c-2.7031 2.1016-8.4102 9.6094-8.4102 9.6094-8.1094 24.625 44.145 76.578 68.469 68.469 0 0 7.5078-5.707 9.6094-8.4102 2.4023-3.0039 0.60156-5.4062 0.60156-5.4062s-13.512-12.914-14.715-14.113c-1.2031-0.90234-3.9023 0.30078-3.9023 0.30078l-7.8086 7.5078c-1.5 1.5-3.0039 1.2031-3.0039 1.2031l-30.332-30.332s-0.30078-1.5 1.2031-3.0039z" fill-rule="evenodd"/>
</svg>
