<?xml version="1.0" encoding="UTF-8"?>
<svg fill="#EE0405" width="100pt" height="100pt" version="1.1" viewBox="0 0 100 100" xmlns="http://www.w3.org/2000/svg">
 <path d="m94.797 22.031-16.828-16.828c-0.60938-0.60547-1.5938-0.60547-2.2031 0l-70.562 70.562c-0.60547 0.60938-0.60547 1.5938 0 2.2031l16.828 16.828c0.60938 0.60547 1.5938 0.60547 2.2031 0l70.562-70.562c0.60547-0.60938 0.60547-1.5938 0-2.2031zm-71.672 69.453-14.609-14.609 2.5-2.5 5.7812 5.7812c0.29297 0.28906 0.68359 0.45312 1.0938 0.45312 0.41406 0.003906 0.81641-0.16016 1.1094-0.45312 0.60547-0.60938 0.60547-1.5938 0-2.2031l-5.7812-5.7812 2.9062-2.9062 2.2031 2.2188c0.29297 0.29297 0.69531 0.45703 1.1094 0.45312 0.41406 0.003906 0.81641-0.16016 1.1094-0.45312 0.29688-0.29297 0.46094-0.69141 0.46094-1.1094s-0.16406-0.81641-0.46094-1.1094l-2.2188-2.2031 2.9062-2.9062 2.2031 2.2188c0.29297 0.29297 0.69531 0.45703 1.1094 0.45312 0.41406 0.003906 0.81641-0.16016 1.1094-0.45312 0.29688-0.29297 0.46094-0.69141 0.46094-1.1094s-0.16406-0.81641-0.46094-1.1094l-2.2188-2.2188 2.9062-2.8906 5.7812 5.7812c0.61328 0.62109 1.6133 0.62891 2.2344 0.015625s0.62891-1.6133 0.015625-2.2344l-5.7812-5.7812 2.9062-2.8906 2.2188 2.2031c0.60938 0.60547 1.5938 0.60547 2.2031 0 0.60547-0.60938 0.60547-1.5938 0-2.2031l-2.2656-2.2188 2.9062-2.9062 2.2188 2.2188c0.60938 0.60547 1.5938 0.60547 2.2031 0 0.60547-0.60938 0.60547-1.5938 0-2.2031l-2.2031-2.2188 2.8906-2.8594 5.7812 5.7812c0.60938 0.61328 1.5977 0.61719 2.2109 0.007812 0.61328-0.60937 0.61719-1.5977 0.007813-2.2109l-5.7812-5.7812 2.8906-2.9062 2.2188 2.2188c0.29297 0.29297 0.69531 0.45703 1.1094 0.45312 0.41406 0.003906 0.81641-0.16016 1.1094-0.45312 0.60547-0.60938 0.60547-1.5938 0-2.2031l-2.2188-2.2188 2.9062-2.9062 2.2031 2.2188c0.29297 0.29297 0.69531 0.45703 1.1094 0.45312 0.41406 0.003906 0.81641-0.16016 1.1094-0.45312 0.29688-0.29297 0.46094-0.69141 0.46094-1.1094s-0.16406-0.81641-0.46094-1.1094l-2.2188-2.2812 2.9062-2.9062 5.7812 5.7812c0.60938 0.60547 1.5938 0.60547 2.2031 0 0.60547-0.60938 0.60547-1.5938 0-2.2031l-5.7812-5.7812 2.9062-2.9062 2.2031 2.2188c0.29297 0.29297 0.69531 0.45703 1.1094 0.45312 0.41406 0.003906 0.81641-0.16016 1.1094-0.45312 0.29688-0.29297 0.46094-0.69141 0.46094-1.1094s-0.16406-0.81641-0.46094-1.1094l-2.2188-2.2188 2.8594-2.8594 2.2656 2.1562c0.28906 0.29297 0.67969 0.46094 1.0938 0.46875 0.63672 0.003906 1.207-0.37891 1.4531-0.96484 0.24219-0.58594 0.10547-1.2617-0.34375-1.707l-2.2188-2.1719 2.9062-2.8906 5.7812 5.7812c0.29297 0.29297 0.69531 0.45703 1.1094 0.45312 0.63281-0.003906 1.1992-0.38672 1.4414-0.96875 0.23828-0.58594 0.10156-1.2578-0.34766-1.7031l-5.7812-5.7812 2.3281-2.3125 14.609 14.609z"/>
</svg>
