<?xml version="1.0" encoding="UTF-8"?>
<svg fill="#EE0405" width="100pt" height="100pt" version="1.1" viewBox="0 0 100 100" xmlns="http://www.w3.org/2000/svg">
 <g>
  <path d="m18.039 22.742 19.281 11.102c0.74609 0.42578 1.6953 0.16406 2.125-0.57812l10.344-17.859 7.9766 13.82-4.3984 2.5391c-0.57031 0.33203-0.86719 0.98438-0.75 1.6328 0.12109 0.64453 0.63281 1.1484 1.2812 1.2578l22.82 3.7344h0.25781c0.64844 0 1.2305-0.40234 1.4609-1.0078l8.1797-21.641c0.21875-0.61328 0.03125-1.3008-0.46875-1.7188-0.5-0.42188-1.207-0.48438-1.7734-0.16406l-4.6016 2.6562-1.7031-2.9453c-1.4531-2.6602-3.5898-4.8867-6.1875-6.4492-2.6016-1.5625-5.5703-2.4023-8.6016-2.4336h-26.336c-3.1289-0.023438-6.2109 0.78516-8.9219 2.3477-2.7148 1.5625-4.9648 3.8164-6.5156 6.5352l-4.0391 7.0312c-0.21094 0.35938-0.26562 0.78516-0.16016 1.1875 0.10938 0.40234 0.37109 0.74609 0.73047 0.95313zm45.242-14.93c5.1016 0.070312 9.375 2.6719 12.07 7.3203l2.4844 4.2969c0.20703 0.36328 0.54687 0.625 0.94922 0.73437 0.40234 0.10938 0.83203 0.050782 1.1914-0.15625l2.1641-1.25-6.1719 16.344-17.25-2.8203 1.9609-1.1328c0.35937-0.20703 0.61719-0.54688 0.72656-0.94531s0.058594-0.82812-0.14844-1.1875l-8.9141-15.445c-1.3125-2.2852-3.1133-4.25-5.2734-5.7578zm-39.062 7.3203c2.5352-4.4375 7.2188-7.2188 12.328-7.3203h1.0703c3.8945 0.17188 7.5586 1.9062 10.156 4.8125-0.19531 0.29688-0.375 0.59375-0.57031 0.94531l-9.7031 16.781-16.547-9.5391z"/>
  <path d="m39.844 67.969h-20.453l8.0234-13.898 4.4062 2.5391c0.57422 0.33594 1.3008 0.26953 1.8047-0.16406 0.50781-0.43359 0.68359-1.1367 0.4375-1.7578l-8.1797-21.617c-0.26172-0.69922-0.98047-1.1133-1.7188-0.99219l-22.828 3.7344c-0.65234 0.10156-1.1719 0.60156-1.2969 1.25-0.125 0.64844 0.17188 1.3047 0.74219 1.6406l4.6016 2.6562-1.6719 2.9531c-3.1406 5.375-3.2148 12.008-0.19531 17.453 0 0 0 0.070313 0.054687 0.10938l12.836 21.992 0.11719 0.21875c1.5664 2.7227 3.8281 4.9805 6.5508 6.5391 2.7266 1.5625 5.8164 2.3711 8.957 2.3438h7.8125c0.41406 0 0.8125-0.16406 1.1055-0.45703s0.45703-0.69141 0.45703-1.1055v-21.875c0-0.41406-0.16406-0.8125-0.45703-1.1055s-0.69141-0.45703-1.1055-0.45703zm-25.602 5.9922-7.9141-13.57c-2.5469-4.5039-2.5078-10.02 0.10156-14.484l2.4844-4.3047c0.42969-0.74609 0.17578-1.6992-0.57031-2.1328l-2.1641-1.25 17.258-2.8516 6.1797 16.344-1.9609-1.1328c-0.74609-0.42969-1.6992-0.17578-2.1328 0.57031l-8.9453 15.445c-1.3125 2.2539-2.1094 4.7695-2.3359 7.3672zm24.039 15.883h-6.25c-5.1602 0.054688-9.9648-2.6211-12.641-7.0312l-0.29688-0.50781c-1.9102-3.4219-2.3164-7.4805-1.125-11.211 0.26172 0.015625 0.51953 0.015625 0.78125 0h19.531z"/>
  <path d="m97.578 44.164-4.0703-7.0312c-0.20703-0.35937-0.54687-0.62109-0.94531-0.73047-0.40234-0.10938-0.82812-0.054688-1.1875 0.15234l-19.031 10.969c-0.35938 0.20703-0.62109 0.55078-0.73047 0.95312-0.10547 0.40234-0.050781 0.82813 0.16016 1.1875l10.57 18.305h-15.938v-5.4688c0-0.66016-0.41016-1.25-1.0312-1.4727s-1.3125-0.035156-1.7344 0.47266l-14.953 17.969c-0.48438 0.57812-0.48438 1.4219 0 2l14.953 17.969c0.29688 0.35547 0.73828 0.5625 1.2031 0.5625 0.41406 0 0.8125-0.16406 1.1055-0.45703s0.45703-0.69141 0.45703-1.1055v-5.4688h3.125c6.1992 0.046875 11.969-3.1719 15.18-8.4766l0.0625-0.10938 13.023-22.547c0.12109-0.21484 0.19141-0.45703 0.20312-0.70313 2.7539-5.3594 2.5977-11.754-0.42188-16.969zm-15.414 38.547v0.046874c-1.2969 2.1875-3.1484 3.9922-5.3672 5.2383-2.2188 1.2422-4.7227 1.8789-7.2656 1.8477h-4.6875c-0.86328 0-1.5625 0.69922-1.5625 1.5625v2.7109l-11.328-13.648 11.328-13.648v2.7109c0 0.41406 0.16406 0.8125 0.45703 1.1055s0.69141 0.45703 1.1055 0.45703h17.188c2.7266 0.007812 5.4141-0.61328 7.8594-1.8203zm12.641-22.18c-1.9727 3.5039-5.293 6.043-9.1875 7.0312-0.16016-0.38281-0.34766-0.75781-0.55469-1.1172l-9.7969-16.992 16.32-9.4219 3.2812 5.6953c1.3047 2.25 1.9883 4.8086 1.9766 7.4102-0.007812 2.6016-0.71484 5.1562-2.0391 7.3945z"/>
 </g>
</svg>
