<?xml version="1.0" encoding="UTF-8"?>
<svg fill="#EE0405" width="100pt" height="100pt" version="1.1" viewBox="0 0 100 100" xmlns="http://www.w3.org/2000/svg">
 <g>
  <path d="m21.762 92.238c-3.1562-0.011719-5.7734-2.4492-6-5.5977l-3.7617-56.52c-0.035156-0.54297 0.15234-1.0781 0.51953-1.4805 0.38672-0.40234 0.92188-0.63672 1.4805-0.64062h56v4h-54l3.6406 54.359c0.0625 1.0586 0.94141 1.8828 2 1.8789l18.359-0.23828v4z"/>
  <path d="m74 32h-64c-1.1055 0-2-0.89453-2-2v-8c0-1.1055 0.89453-2 2-2h64c0.53125 0 1.0391 0.21094 1.4141 0.58594s0.58594 0.88281 0.58594 1.4141v8c0 0.53125-0.21094 1.0391-0.58594 1.4141s-0.88281 0.58594-1.4141 0.58594zm-62-4h60v-4h-60z"/>
  <path d="m56 16h-4v-4h-20v4h-4v-6c0-1.1055 0.89453-2 2-2h24c0.53125 0 1.0391 0.21094 1.4141 0.58594s0.58594 0.88281 0.58594 1.4141z"/>
  <path d="m86 92h-32c-3.3125 0-6-2.6875-6-6v-24c0-3.3125 2.6875-6 6-6h32c3.3125 0 6 2.6875 6 6v24c0 3.3125-2.6875 6-6 6zm-32-32c-1.1055 0-2 0.89453-2 2v24c0 0.53125 0.21094 1.0391 0.58594 1.4141s0.88281 0.58594 1.4141 0.58594h32c0.53125 0 1.0391-0.21094 1.4141-0.58594s0.58594-0.88281 0.58594-1.4141v-24c0-0.53125-0.21094-1.0391-0.58594-1.4141s-0.88281-0.58594-1.4141-0.58594z"/>
  <path d="m78 60h-16c-1.1055 0-2-0.89453-2-2v-8c0-5.5234 4.4766-10 10-10s10 4.4766 10 10v8c0 0.53125-0.21094 1.0391-0.58594 1.4141s-0.88281 0.58594-1.4141 0.58594zm-14-4h12v-6c0-3.3125-2.6875-6-6-6s-6 2.6875-6 6z"/>
  <path d="m70 78c-1.6172 0-3.0781-0.97266-3.6953-2.4688-0.62109-1.4961-0.27734-3.2148 0.86719-4.3594s2.8633-1.4883 4.3594-0.86719c1.4961 0.61719 2.4688 2.0781 2.4688 3.6953 0 1.0625-0.42188 2.0781-1.1719 2.8281s-1.7656 1.1719-2.8281 1.1719zm0-4z"/>
 </g>
</svg>
