<?xml version="1.0" encoding="UTF-8"?>
<svg fill="#EE0405" width="100pt" height="100pt" version="1.1" viewBox="0 0 100 100" xmlns="http://www.w3.org/2000/svg">
 <path d="m80.523 49.75c-0.47266-5.4414-2.4023-10.656-5.582-15.098-3.1836-4.4414-7.4961-7.9453-12.496-10.145l6.1992-16.137c0.1875-0.48047 0.12109-1.0195-0.16797-1.4453-0.29297-0.42188-0.77344-0.67578-1.2891-0.67578-8.4453 0-19.027 4.7266-21.863 6.0703l-11.812-5.9062c-0.57812-0.28906-1.2734-0.19141-1.75 0.24219-0.47656 0.43359-0.64062 1.1133-0.40625 1.7148l6.2031 16.137h-0.003906c-5 2.1992-9.3125 5.7031-12.496 10.145-3.1797 4.4414-5.1094 9.6562-5.582 15.098l-3.5352 38.891c-0.12109 1.3086 0.32031 2.6094 1.207 3.582 0.88672 0.97266 2.1445 1.5273 3.4609 1.5273h58.781c1.3164 0 2.5742-0.55469 3.4609-1.5273 0.89063-0.97266 1.3281-2.2734 1.207-3.5859zm-44.809-38.738 8.8984 4.4492c0.44141 0.21875 0.95703 0.21875 1.3984 0 0.11328-0.054688 10.301-5.1094 18.855-5.9648l-5.3398 13.898h-0.003906c-6.1875-2.0273-12.859-2.0273-19.047 0zm44.828 79.105c-0.29297 0.32422-0.71094 0.51172-1.1523 0.50781h-58.781c-0.4375 0-0.85938-0.18359-1.1523-0.50781-0.29688-0.32422-0.44531-0.75781-0.40234-1.1953l3.5352-38.891c0.44141-5.1055 2.3086-9.9844 5.3867-14.082 3.0781-4.0977 7.2461-7.25 12.027-9.0938 0.039063-0.011719 0.082032-0.003907 0.12109-0.019531 0.027344-0.011719 0.042969-0.03125 0.070312-0.042969 0.65625-0.24609 1.3164-0.48047 1.9961-0.67969v-0.003906c-2.082 2.8516-3.1797 6.3008-3.1289 9.8281 0 0.86328 0.69922 1.5625 1.5625 1.5625s1.5625-0.69922 1.5625-1.5625c0-6.0312 3.5039-10.938 7.8125-10.938s7.8125 4.9062 7.8125 10.938c0 0.86328 0.69922 1.5625 1.5625 1.5625s1.5625-0.69922 1.5625-1.5625c0.050781-3.5273-1.0469-6.9766-3.1289-9.8281 0.67969 0.19922 1.3398 0.42969 1.9961 0.67969 0.027343 0.011719 0.042968 0.035157 0.070312 0.042969 0.042969 0.015625 0.089844 0.011719 0.13672 0.023438v0.003906c4.7773 1.8477 8.9414 5 12.016 9.0938 3.0781 4.0977 4.9414 8.9766 5.3828 14.078l3.5352 38.891c0.042969 0.4375-0.10156 0.87109-0.39844 1.1953zm-14.984-33.672-3.293 5.3125c-0.054687 0.085938-0.11719 0.16406-0.1875 0.23438-0.019531 0.019531-0.03125 0.042968-0.050781 0.058593-0.12891 0.125-0.27344 0.22266-0.43359 0.29297-0.039062 0.019531-0.074219 0.03125-0.11719 0.046875-0.17187 0.066406-0.35156 0.10547-0.53516 0.10938h-0.003906c-0.18359-0.003906-0.36719-0.039062-0.53906-0.10938-0.046876-0.015625-0.09375-0.039063-0.14063-0.0625-0.046874-0.015625-0.097656-0.039063-0.14453-0.0625l-5.3125-3.293v0.003906c-0.73047-0.45703-0.96094-1.418-0.50391-2.1523 0.45312-0.73438 1.418-0.96094 2.1484-0.50781l2.3711 1.4688h0.003906c-1.1836-3.3164-4.125-5.6914-7.6172-6.1445s-6.9414 1.0859-8.9336 3.9922c-0.48828 0.71094-1.4609 0.89063-2.1719 0.40234-0.71094-0.48828-0.89062-1.4609-0.40234-2.1719 2.6484-3.8633 7.2344-5.918 11.883-5.3242 4.6445 0.59375 8.5664 3.7344 10.16 8.1406l1.1641-1.8789h-0.003906c0.45703-0.73438 1.418-0.96094 2.1523-0.50391 0.73438 0.45312 0.96094 1.418 0.50781 2.1484zm-5.6562 9.3906c0.71094 0.48828 0.89062 1.4609 0.40234 2.1719-2.6484 3.8633-7.2344 5.918-11.883 5.3242-4.6445-0.59375-8.5664-3.7383-10.16-8.1406l-1.1641 1.8789h0.003906c-0.45703 0.73047-1.418 0.95703-2.1523 0.50391s-0.96094-1.418-0.50781-2.1523l3.293-5.3125c0.035156-0.042969 0.074219-0.085937 0.11719-0.125 0.066407-0.085937 0.13672-0.16406 0.21875-0.23047 0.15234-0.125 0.32422-0.21875 0.51172-0.28516 0.10156-0.03125 0.20703-0.054688 0.3125-0.0625 0.054688-0.015625 0.10938-0.027344 0.16797-0.035156 0.039062 0 0.074219 0.019531 0.11328 0.023437 0.20703 0.023438 0.41016 0.082031 0.59766 0.16797 0.035156 0.019531 0.074218 0.019531 0.10937 0.039062l5.3125 3.293c0.73438 0.45312 0.96094 1.418 0.50781 2.1523s-1.418 0.96094-2.1523 0.50781l-2.3711-1.4688c1.1836 3.3164 4.125 5.6875 7.6172 6.1445 3.4883 0.45312 6.9414-1.0898 8.9336-3.9922 0.48828-0.71094 1.4609-0.89062 2.1719-0.40234z"/>
</svg>
