<?xml version="1.0" encoding="UTF-8"?>
<svg fill="#019443" width="100pt" height="100pt" version="1.1" viewBox="0 0 100 100" xmlns="http://www.w3.org/2000/svg">
 <g>
  <path d="m67.789 16.594c4.582 0.003906 8.3008-3.7188 8.2969-8.3008 0.003906-4.5898-3.7148-8.3047-8.2969-8.293-4.5898-0.011719-8.3086 3.7031-8.2969 8.2969-0.011719 4.582 3.7109 8.3008 8.2969 8.2969z"/>
  <path d="m57.102 31.871 0.050782 63.402c0.015625 6.3281 9.3438 6.2695 9.3203-0.14844l0.050782-36.895h1.8047v36.848c-0.019531 6.4492 9.4141 6.6094 9.4219 0.19531v-63.695h1.6602v22.746c-0.019531 5.4688 7.3867 5.4688 7.3672 0.097656v-24.844c0.015625-6.707-4.9609-10.645-10.199-10.641h-14.789c-3.5039-0.003906-6.0469 1.3828-8.1992 4.4414l-7.4688 10.883h-12.934c-5.2305 0-4.9375 7.3906-0.097656 7.3711h14.934c1.1602 0.019532 2.5859-0.41797 3.418-1.6602z"/>
  <path d="m32.746 70.723v-6.0508h-6.0508v6.0508z"/>
  <path d="m36.066 57.25-4.4414-4.3906-4.4414 4.3906 4.4414 4.4414z"/>
  <path d="m31.918 48.902-4.4414-4.3906-4.3945 4.3906 4.3945 4.4453z"/>
  <path d="m41.094 99.957 7.9062-41.926h-5.9531l-6.8828 36.07h-10.25l-6.7852-36.07h-5.9062l7.7148 41.926z"/>
 </g>
</svg>
