<?xml version="1.0" encoding="UTF-8"?>
<svg fill="#EE0405" width="100pt" height="100pt" version="1.1" viewBox="0 0 100 100" xmlns="http://www.w3.org/2000/svg">
 <g>
  <path d="m51.801 14.699c0-1.3984-1.1016-2.5-2.5-2.5h-29.699c-1.3984 0-2.5 1.1016-2.5 2.5v3.5h34.602l-0.003906-3.5z"/>
  <path d="m77.699 51c3.6016 0 6.8984 1 9.6992 2.8008v-11.5c0-1.3984-1.1016-2.5-2.5-2.5h-16.898v-11.801c0-0.69922-0.5-1.1992-1.1016-1.3008v-13.301h-4.5v1.8008h2.6016v11.602c-0.5 0.19922-0.89844 0.60156-0.89844 1.1992v11.898h-9l-3.3984-19.199h-34.504l-2.3008 19.199c-2.1016 1.6016-3.6016 3.8008-4.3984 5.1992-0.39844 0.69922-0.30078 1.6992 0.30078 2.3008l0.80078 0.80078c4-2.8984 8.8984-4.6992 14.199-4.6992 12.602 0 22.898 9.6992 23.801 22.102h10.102c1.6953-8.4023 9.0977-14.602 17.996-14.602zm-43.199-13.301c0 0.89844-0.80078 1.6992-1.6992 1.6992h-11.5c-1 0-1.8008-0.80078-1.6992-1.8008l0.69922-12c0.10156-0.89844 0.80078-1.6016 1.6992-1.6016h10.801c0.89844 0 1.6992 0.80078 1.6992 1.6992zm15.5 9.8008h-3.8008c-0.5 0-1-0.19922-1.3984-0.5l-6.3984-4.8984c-0.60156-0.39844-0.89844-1.1016-0.89844-1.8984l-0.003906-13.805c0-1.3008 1.1016-2.3984 2.3984-2.3984h7.5c1.1992 0 2.1992 0.89844 2.3008 2l2.6992 18.699c0.10156 1.5-1 2.8008-2.3984 2.8008z"/>
  <path d="m45 64c-0.19922-1.5-0.60156-2.8984-1.1016-4.1992l1.1992-1.1992c-0.69922-1.5-1.5-3-2.5-4.3008l-1.5977 0.5c-0.89844-1.1016-1.8984-2.1992-3.1016-3.1016l0.39844-1.6016c-1.3008-1-2.8008-1.8008-4.3008-2.5l-0.99609 1.3008c-1.3008-0.5-2.6992-0.89844-4.1992-1.1016l-0.39844-1.6016c-0.80078-0.19531-1.6016-0.19531-2.5039-0.19531-0.80078 0-1.6992 0.10156-2.5 0.19922l-0.39844 1.5c-1.5 0.19922-2.8984 0.60156-4.1992 1.1016l-1.1992-1.1992c-1.5 0.69922-3 1.5-4.3008 2.5l0.39844 1.6016c-1.1016 0.89844-2.1992 1.8984-3.1016 3.1016l-1.6016-0.39844c-1 1.3008-1.8008 2.8008-2.5 4.3008l1.1992 1.1992c-0.29687 1.1953-0.69531 2.5938-0.89453 4.0938l-1.6016 0.39844c-0.097657 0.80078-0.19922 1.6016-0.19922 2.5 0 0.80078 0.10156 1.6992 0.19922 2.5l1.6016 0.39844c0.19922 1.4023 0.59766 2.8047 1.0977 4.2031l-1.1992 1.1992c0.69922 1.5 1.5 3 2.5 4.3008l1.6016-0.39844c0.89844 1.1016 1.8984 2.1992 3.1016 3.1016l-0.39844 1.6016c1.3008 1 2.8008 1.8008 4.3008 2.5l1.1992-1.1992c1.3008 0.5 2.6992 0.89844 4.1992 1.1016l0.39844 1.6016c0.80078 0.10156 1.6016 0.19922 2.5 0.19922 0.80078 0 1.6992-0.10156 2.5-0.19922l0.39844-1.6016c1.5-0.19922 2.8984-0.60156 4.1992-1.1016l1.1992 1.1992c1.5-0.69922 3-1.5 4.3008-2.5l-0.69922-1.8047c1.1016-0.89844 2.1992-1.8984 3.1016-3.1016l1.6016 0.39844c1-1.3008 1.8008-2.8008 2.5-4.3008l-1.3047-0.99609c0.5-1.3008 0.89844-2.6992 1.1016-4.1992l1.6016-0.39844c0.10156-0.80078 0.19922-1.6016 0.19922-2.5 0-0.80078-0.10156-1.6992-0.19922-2.5zm-19.102 13.102c-5.6016 0-10.199-4.6016-10.199-10.199 0-5.6016 4.6016-10.199 10.199-10.199 5.6016 0 10.199 4.6016 10.199 10.199 0.003906 5.5977-4.5977 10.199-10.199 10.199z"/>
  <path d="m94.898 72.199c0.10156-0.69922 0.10156-1.3008 0.10156-2s-0.10156-1.3008-0.10156-2l-1.3008-0.30078c-0.19922-1.1992-0.5-2.3008-0.89844-3.3008l1-0.89844c-0.5-1.1992-1.1992-2.3984-2-3.3984l-1.3008 0.39844c-0.69922-0.89844-1.5-1.6992-2.3984-2.3984l0.39844-1.3008c-1.1016-0.80078-2.1992-1.5-3.3984-2l-0.89844 1c-1.1016-0.39844-2.1992-0.69922-3.3008-0.89844l-0.30078-1.3008c-0.69922-0.10156-1.3008-0.10156-2-0.10156s-1.3008 0.10156-2 0.10156l-0.5 1.1992c-1.1992 0.19922-2.3008 0.5-3.3008 0.89844l-0.89844-1c-1.1992 0.5-2.3984 1.1992-3.3984 2l0.39844 1.3008c-0.89844 0.69922-1.6992 1.5-2.3984 2.3984l-1.4023-0.39844c-0.80078 1.1016-1.5 2.1992-2 3.3984l1 0.89844c-0.39844 1.1016-0.69922 2.1992-0.89844 3.3008l-1.3008 0.30078c-0.10156 0.69922-0.10156 1.3008-0.10156 2 0 0.69922 0.10156 1.3008 0.10156 2l1.3008 0.30078c0.19922 1.1992 0.5 2.3008 0.89844 3.3008l-1 0.89844c0.5 1.1992 1.1992 2.3984 2 3.3984l1.3008-0.39844c0.69922 0.89844 1.5 1.6992 2.3984 2.3984l-0.39844 1.3008c1.1016 0.80078 2.1992 1.5 3.3984 2l0.89844-1c1.1016 0.39844 2.1992 0.69922 3.3008 0.89844l0.30078 1.3008c0.69922 0.10156 1.3008 0.10156 2 0.10156s1.3008-0.10156 2-0.10156l0.30078-1.3008c1.1992-0.19922 2.3008-0.5 3.3008-0.89844l0.89844 1c1.1992-0.5 2.3984-1.1992 3.3984-2l-0.097656-0.99609c0.89844-0.69922 1.6992-1.5 2.3984-2.3984l1.3008 0.39844c0.80078-1.1016 1.5-2.1992 2-3.3984l-1-0.89844c0.39844-1.1016 0.69922-2.1992 0.89844-3.3008zm-16.598 6.6016c-4.6992 0-8.6016-3.8008-8.6016-8.6016 0-4.6992 3.8008-8.6016 8.6016-8.6016 4.6992 0 8.6016 3.8008 8.6016 8.6016-0.003906 4.8008-3.8008 8.6016-8.6016 8.6016z"/>
  <path d="m30.602 66.898c0 6.2695-9.4023 6.2695-9.4023 0 0-6.2656 9.4023-6.2656 9.4023 0"/>
  <path d="m82.398 70.199c0 5.4688-8.1992 5.4688-8.1992 0 0-5.4648 8.1992-5.4648 8.1992 0"/>
 </g>
</svg>
